<svg xmlns="http://www.w3.org/2000/svg" viewBox="0 0 500 500"><!--Image Folder--><g id="freepik--background-simple--inject-1--inject-2"><path d="M386.55,221.64C358.94,209,334.31,190,311.93,169.7c-27.75-25.23-49-63.17-86.31-75.52-19-6.3-38.61-5.34-57.3.38-34.25,10.5-65.5,37-84.83,64.11-19.76,27.73-31.43,65.48-16.13,97.92,17.39,36.86,62.79,47.87,86.18,80.68,3.33,4.67,6.28,9.62,9.24,14.55L79.62,385.09l96.52,26.33,9.21-6.83c11.91,5.72,38.4,9.7,69.19,9.7,41.92,0,75.91-7.38,75.91-16.47,0-2.77-3.16-5.37-8.7-7.66,52.72-14,100.48-45.62,103.41-100.26C426.7,261.06,413.4,234,386.55,221.64Z" style="fill:#5C6FFF"></path><path d="M386.55,221.64C358.94,209,334.31,190,311.93,169.7c-27.75-25.23-49-63.17-86.31-75.52-19-6.3-38.61-5.34-57.3.38-34.25,10.5-65.5,37-84.83,64.11-19.76,27.73-31.43,65.48-16.13,97.92,17.39,36.86,62.79,47.87,86.18,80.68,3.33,4.67,6.28,9.62,9.24,14.55L79.62,385.09l96.52,26.33,9.21-6.83c11.91,5.72,38.4,9.7,69.19,9.7,41.92,0,75.91-7.38,75.91-16.47,0-2.77-3.16-5.37-8.7-7.66,52.72-14,100.48-45.62,103.41-100.26C426.7,261.06,413.4,234,386.55,221.64Z" style="fill:#fff;opacity:0.7000000000000001"></path></g><g id="freepik--Plants--inject-1--inject-2"><path d="M339.73,173.82c3,1.31,10.36,1.15,10.36,1.15s-1.58-4.82-1.72-5.11c-1.61-3.38-6.71-9-10.87-8.39a5,5,0,0,0-4,6.22C334.21,170.56,337.17,172.7,339.73,173.82Z" style="fill:#5C6FFF"></path><path d="M436.07,148.78c-4.16-.44-9.11,5.26-10.64,8.68-.13.3-1.66,5.15-1.58,5.15h.09c-.79.9-1.62,1.87-2.51,2.94-1.63,2-3.46,4.28-5.27,6.9a86.64,86.64,0,0,0-5.47,8.7A64.22,64.22,0,0,0,406,191.66a.65.65,0,0,0,0,.13c0-1.23,0-4.66-.07-4.93-.48-3.71-3.59-10.59-7.71-11.35a5,5,0,0,0-5.72,4.66c-.24,3,1.9,5.9,4,7.76,2.35,2.1,8.88,4.13,9.4,4.29a85.7,85.7,0,0,0-2.76,11.39c-.4,2.24-.73,4.51-1,6.79,0-1.06,0-2-.05-2.15-.49-3.71-3.6-10.59-7.72-11.35a5,5,0,0,0-5.72,4.66c-.24,2.95,1.9,5.9,4,7.76s7.64,3.73,9.11,4.2c-.11.88-.23,1.75-.33,2.63-.51,4.2-1,8.4-1.59,12.51-.21,1.44-.47,2.86-.73,4.28,0-.95,0-1.74,0-1.86-.48-3.71-3.59-10.6-7.71-11.36a5,5,0,0,0-5.72,4.66c-.24,3,1.9,5.9,4,7.76s7.11,3.56,8.85,4.12c-.3,1.45-.61,2.89-1,4.28-.27.94-.46,1.86-.78,2.79s-.6,1.85-.89,2.76c-.63,1.73-1.27,3.52-1.93,5.19-.44,1.17-.89,2.27-1.34,3.38.23-1.43.61-4.26.62-4.5a19.31,19.31,0,0,0-2.59-9.36,5.76,5.76,0,0,0-.06-1.1,5,5,0,0,0-6.07-4.21c-4.05,1.08-6.61,8.19-6.81,11.93,0,.22.14,2.62.25,4.14-.2-.88-.39-1.74-.61-2.64-.42-1.8-.9-3.57-1.41-5.48-.27-.92-.55-1.84-.83-2.77s-.66-1.88-1-2.83c-.8-2.19-1.72-4.37-2.7-6.55,1.57-.38,7.12-1.79,9.35-3.5s4.56-4.48,4.54-7.44a5,5,0,0,0-5.35-5.08c-4.17.46-7.78,7.09-8.54,10.76,0,.22-.29,2.91-.4,4.4-.6-1.31-1.18-2.61-1.83-3.91-1.86-3.75-3.86-7.49-5.84-11.23-.61-1.14-1.2-2.29-1.8-3.43.56-.13,7.19-1.67,9.69-3.58,2.21-1.71,4.57-4.49,4.54-7.45a5,5,0,0,0-5.35-5.07c-4.17.45-7.78,7.09-8.54,10.75-.06.28-.4,4.15-.45,5.14-1.31-2.53-2.59-5.06-3.76-7.6a87.08,87.08,0,0,1-4.09-10.57c.26,0,7.19-1.63,9.75-3.59,2.21-1.7,4.56-4.48,4.54-7.44a5,5,0,0,0-5.35-5.08c-4.17.45-7.78,7.09-8.54,10.76-.06.28-.43,4.45-.45,5.21-.06-.21-.15-.42-.21-.63a63.09,63.09,0,0,1-2.12-11.15c-.24-2.08-.34-4.09-.4-6,1.32-.16,7.34-1,9.84-2.47s5-4,5.33-6.9a5,5,0,0,0-4.76-5.63c-4.19,0-8.51,6.19-9.67,9.75-.06.19-.48,2.23-.77,3.72,0-.88,0-1.79,0-2.63,0-3.17.21-6.07.41-8.64.12-1.46.26-2.78.41-4,1.21-.83,6.06-4.25,7.55-6.7s2.64-5.83,1.56-8.58a5,5,0,0,0-6.83-2.8c-3.72,1.92-4.7,9.41-4.09,13.1.06.32,1.46,5.22,1.53,5.17l.07-.05c-.16,1.18-.32,2.45-.47,3.84-.26,2.57-.52,5.48-.6,8.66a88.21,88.21,0,0,0,.25,10.27,64.56,64.56,0,0,0,1.9,11.34l0,.13c-.66-1-2.6-3.87-2.77-4.07-2.45-2.83-8.84-6.86-12.7-5.22a5,5,0,0,0-2.2,7c1.43,2.59,4.84,3.87,7.61,4.27,3.11.46,9.68-1.45,10.2-1.6a89.58,89.58,0,0,0,4,11c.9,2.09,1.88,4.16,2.88,6.23-.6-.87-1.14-1.65-1.23-1.75-2.44-2.83-8.84-6.86-12.7-5.22a5,5,0,0,0-2.19,7c1.42,2.59,4.83,3.87,7.6,4.28s8.43-1.1,9.92-1.52c.39.79.77,1.58,1.17,2.37,1.9,3.78,3.82,7.55,5.58,11.31.62,1.32,1.18,2.64,1.75,4-.53-.78-1-1.43-1.06-1.52-2.45-2.83-8.85-6.86-12.7-5.22a5,5,0,0,0-2.2,7c1.42,2.59,4.84,3.87,7.6,4.28s7.89-1,9.65-1.45c.54,1.37,1.09,2.75,1.55,4.1.3.94.65,1.81.89,2.77s.52,1.86.78,2.78c.43,1.79.88,3.64,1.26,5.4.27,1.22.5,2.38.74,3.56-.6-1.32-1.84-3.89-2-4.09-2-3.17-7.7-8.12-11.77-7.09a5,5,0,0,0-3.23,6.63c1,2.78,4.19,4.57,6.86,5.38,2.94.9,9.46.08,10.27,0,.39,2,.75,3.85,1.06,5.64,1.1,6.22,1.78,11.45,2.2,15.1.08.65.14,1.23.2,1.78H366.76l4.6,89.85h21.49l4.61-89.85H385.71c.08-.18.17-.35.26-.54,1.61-3.36,3.85-8.18,6.26-14.09.77-1.86,1.55-3.87,2.33-5.94.79.17,7.24,1.48,10.25.8,2.72-.62,6-2.16,7.25-4.86a5,5,0,0,0-2.74-6.85c-4-1.33-10,3.18-12.26,6.19-.13.18-1.33,2.26-2.07,3.59.31-.85.63-1.67.94-2.54.64-1.73,1.22-3.47,1.85-5.35l.83-2.77c.3-.92.49-1.93.75-2.9.54-2.27,1-4.59,1.36-7,1.52.56,6.92,2.44,9.72,2.24s6.29-1.22,7.9-3.7a5,5,0,0,0-1.66-7.19c-3.73-1.92-10.41,1.62-13.06,4.26-.16.17-1.85,2.27-2.76,3.45.22-1.42.45-2.83.63-4.27.52-4.15.91-8.37,1.32-12.58.12-1.29.27-2.58.4-3.86.54.2,6.91,2.58,10.05,2.36,2.79-.2,6.29-1.22,7.9-3.7a5,5,0,0,0-1.67-7.19c-3.72-1.92-10.4,1.62-13.05,4.26-.2.2-2.63,3.23-3.21,4,.3-2.83.63-5.64,1.06-8.41a85.63,85.63,0,0,1,2.42-11.06c.25.09,6.89,2.6,10.1,2.37,2.79-.19,6.29-1.22,7.9-3.7a5,5,0,0,0-1.66-7.18c-3.73-1.93-10.4,1.62-13.06,4.25-.21.21-2.81,3.48-3.25,4.11.07-.21.11-.44.17-.65a64.73,64.73,0,0,1,4.38-10.47c1-1.86,2-3.59,3-5.25,1.19.59,6.66,3.25,9.57,3.36s6.38-.52,8.26-2.81a5,5,0,0,0-.87-7.32c-3.49-2.32-10.52.46-13.44,2.8-.16.12-1.63,1.59-2.69,2.68.47-.75.95-1.52,1.41-2.22,1.76-2.64,3.52-5,5.11-7,.91-1.15,1.75-2.17,2.55-3.12,1.47,0,7.4-.21,10-1.42s5.43-3.41,6-6.3A5,5,0,0,0,436.07,148.78ZM389.94,260.72c-2.51,5.79-4.83,10.52-6.5,13.8-.33.67-.63,1.25-.91,1.79h-.28c-.08-.64-.18-1.34-.28-2.13-.51-3.69-1.31-8.95-2.55-15.2-.39-2-.85-4.09-1.33-6.25a55.61,55.61,0,0,0,5.73-2.69c2.14,2.32,7.64,5,8.35,5.39C391.42,257.26,390.67,259.05,389.94,260.72Z" style="fill:#5C6FFF"></path><path d="M414.12,175.44c.06,0,1.34-4.89,1.38-5.21.52-3.71-.66-11.17-4.44-13a5,5,0,0,0-6.74,3c-1,2.78.27,6.19,1.79,8.54C407.89,171.51,414.11,175.43,414.12,175.44Z" style="fill:#5C6FFF"></path><g style="opacity:0.30000000000000004"><path d="M339.73,173.82c3,1.31,10.36,1.15,10.36,1.15s-1.58-4.82-1.72-5.11c-1.61-3.38-6.71-9-10.87-8.39a5,5,0,0,0-4,6.22C334.21,170.56,337.17,172.7,339.73,173.82Z" style="fill:#fff"></path><path d="M436.07,148.78c-4.16-.44-9.11,5.26-10.64,8.68-.13.3-1.66,5.15-1.58,5.15h.09c-.79.9-1.62,1.87-2.51,2.94-1.63,2-3.46,4.28-5.27,6.9a86.64,86.64,0,0,0-5.47,8.7A64.22,64.22,0,0,0,406,191.66a.65.65,0,0,0,0,.13c0-1.23,0-4.66-.07-4.93-.48-3.71-3.59-10.59-7.71-11.35a5,5,0,0,0-5.72,4.66c-.24,3,1.9,5.9,4,7.76,2.35,2.1,8.88,4.13,9.4,4.29a85.7,85.7,0,0,0-2.76,11.39c-.4,2.24-.73,4.51-1,6.79,0-1.06,0-2-.05-2.15-.49-3.71-3.6-10.59-7.72-11.35a5,5,0,0,0-5.72,4.66c-.24,2.95,1.9,5.9,4,7.76s7.64,3.73,9.11,4.2c-.11.88-.23,1.75-.33,2.63-.51,4.2-1,8.4-1.59,12.51-.21,1.44-.47,2.86-.73,4.28,0-.95,0-1.74,0-1.86-.48-3.71-3.59-10.6-7.71-11.36a5,5,0,0,0-5.72,4.66c-.24,3,1.9,5.9,4,7.76s7.11,3.56,8.85,4.12c-.3,1.45-.61,2.89-1,4.28-.27.94-.46,1.86-.78,2.79s-.6,1.85-.89,2.76c-.63,1.73-1.27,3.52-1.93,5.19-.44,1.17-.89,2.27-1.34,3.38.23-1.43.61-4.26.62-4.5a19.31,19.31,0,0,0-2.59-9.36,5.76,5.76,0,0,0-.06-1.1,5,5,0,0,0-6.07-4.21c-4.05,1.08-6.61,8.19-6.81,11.93,0,.22.14,2.62.25,4.14-.2-.88-.39-1.74-.61-2.64-.42-1.8-.9-3.57-1.41-5.48-.27-.92-.55-1.84-.83-2.77s-.66-1.88-1-2.83c-.8-2.19-1.72-4.37-2.7-6.55,1.57-.38,7.12-1.79,9.35-3.5s4.56-4.48,4.54-7.44a5,5,0,0,0-5.35-5.08c-4.17.46-7.78,7.09-8.54,10.76,0,.22-.29,2.91-.4,4.4-.6-1.31-1.18-2.61-1.83-3.91-1.86-3.75-3.86-7.49-5.84-11.23-.61-1.14-1.2-2.29-1.8-3.43.56-.13,7.19-1.67,9.69-3.58,2.21-1.71,4.57-4.49,4.54-7.45a5,5,0,0,0-5.35-5.07c-4.17.45-7.78,7.09-8.54,10.75-.06.28-.4,4.15-.45,5.14-1.31-2.53-2.59-5.06-3.76-7.6a87.08,87.08,0,0,1-4.09-10.57c.26,0,7.19-1.63,9.75-3.59,2.21-1.7,4.56-4.48,4.54-7.44a5,5,0,0,0-5.35-5.08c-4.17.45-7.78,7.09-8.54,10.76-.06.28-.43,4.45-.45,5.21-.06-.21-.15-.42-.21-.63a63.09,63.09,0,0,1-2.12-11.15c-.24-2.08-.34-4.09-.4-6,1.32-.16,7.34-1,9.84-2.47s5-4,5.33-6.9a5,5,0,0,0-4.76-5.63c-4.19,0-8.51,6.19-9.67,9.75-.06.19-.48,2.23-.77,3.72,0-.88,0-1.79,0-2.63,0-3.17.21-6.07.41-8.64.12-1.46.26-2.78.41-4,1.21-.83,6.06-4.25,7.55-6.7s2.64-5.83,1.56-8.58a5,5,0,0,0-6.83-2.8c-3.72,1.92-4.7,9.41-4.09,13.1.06.32,1.46,5.22,1.53,5.17l.07-.05c-.16,1.18-.32,2.45-.47,3.84-.26,2.57-.52,5.48-.6,8.66a88.21,88.21,0,0,0,.25,10.27,64.56,64.56,0,0,0,1.9,11.34l0,.13c-.66-1-2.6-3.87-2.77-4.07-2.45-2.83-8.84-6.86-12.7-5.22a5,5,0,0,0-2.2,7c1.43,2.59,4.84,3.87,7.61,4.27,3.11.46,9.68-1.45,10.2-1.6a89.58,89.58,0,0,0,4,11c.9,2.09,1.88,4.16,2.88,6.23-.6-.87-1.14-1.65-1.23-1.75-2.44-2.83-8.84-6.86-12.7-5.22a5,5,0,0,0-2.19,7c1.42,2.59,4.83,3.87,7.6,4.28s8.43-1.1,9.92-1.52c.39.79.77,1.58,1.17,2.37,1.9,3.78,3.82,7.55,5.58,11.31.62,1.32,1.18,2.64,1.75,4-.53-.78-1-1.43-1.06-1.52-2.45-2.83-8.85-6.86-12.7-5.22a5,5,0,0,0-2.2,7c1.42,2.59,4.84,3.87,7.6,4.28s7.89-1,9.65-1.45c.54,1.37,1.09,2.75,1.55,4.1.3.94.65,1.81.89,2.77s.52,1.86.78,2.78c.43,1.79.88,3.64,1.26,5.4.27,1.22.5,2.38.74,3.56-.6-1.32-1.84-3.89-2-4.09-2-3.17-7.7-8.12-11.77-7.09a5,5,0,0,0-3.23,6.63c1,2.78,4.19,4.57,6.86,5.38,2.94.9,9.46.08,10.27,0,.39,2,.75,3.85,1.06,5.64,1.1,6.22,1.78,11.45,2.2,15.1.08.65.14,1.23.2,1.78H366.76l4.6,89.85h21.49l4.61-89.85H385.71c.08-.18.17-.35.26-.54,1.61-3.36,3.85-8.18,6.26-14.09.77-1.86,1.55-3.87,2.33-5.94.79.17,7.24,1.48,10.25.8,2.72-.62,6-2.16,7.25-4.86a5,5,0,0,0-2.74-6.85c-4-1.33-10,3.18-12.26,6.19-.13.18-1.33,2.26-2.07,3.59.31-.85.63-1.67.94-2.54.64-1.73,1.22-3.47,1.85-5.35l.83-2.77c.3-.92.49-1.93.75-2.9.54-2.27,1-4.59,1.36-7,1.52.56,6.92,2.44,9.72,2.24s6.29-1.22,7.9-3.7a5,5,0,0,0-1.66-7.19c-3.73-1.92-10.41,1.62-13.06,4.26-.16.17-1.85,2.27-2.76,3.45.22-1.42.45-2.83.63-4.27.52-4.15.91-8.37,1.32-12.58.12-1.29.27-2.58.4-3.86.54.2,6.91,2.58,10.05,2.36,2.79-.2,6.29-1.22,7.9-3.7a5,5,0,0,0-1.67-7.19c-3.72-1.92-10.4,1.62-13.05,4.26-.2.2-2.63,3.23-3.21,4,.3-2.83.63-5.64,1.06-8.41a85.63,85.63,0,0,1,2.42-11.06c.25.09,6.89,2.6,10.1,2.37,2.79-.19,6.29-1.22,7.9-3.7a5,5,0,0,0-1.66-7.18c-3.73-1.93-10.4,1.62-13.06,4.25-.21.21-2.81,3.48-3.25,4.11.07-.21.11-.44.17-.65a64.73,64.73,0,0,1,4.38-10.47c1-1.86,2-3.59,3-5.25,1.19.59,6.66,3.25,9.57,3.36s6.38-.52,8.26-2.81a5,5,0,0,0-.87-7.32c-3.49-2.32-10.52.46-13.44,2.8-.16.12-1.63,1.59-2.69,2.68.47-.75.95-1.52,1.41-2.22,1.76-2.64,3.52-5,5.11-7,.91-1.15,1.75-2.17,2.55-3.12,1.47,0,7.4-.21,10-1.42s5.43-3.41,6-6.3A5,5,0,0,0,436.07,148.78ZM389.94,260.72c-2.51,5.79-4.83,10.52-6.5,13.8-.33.67-.63,1.25-.91,1.79h-.28c-.08-.64-.18-1.34-.28-2.13-.51-3.69-1.31-8.95-2.55-15.2-.39-2-.85-4.09-1.33-6.25a55.61,55.61,0,0,0,5.73-2.69c2.14,2.32,7.64,5,8.35,5.39C391.42,257.26,390.67,259.05,389.94,260.72Z" style="fill:#fff"></path><path d="M414.12,175.44c.06,0,1.34-4.89,1.38-5.21.52-3.71-.66-11.17-4.44-13a5,5,0,0,0-6.74,3c-1,2.78.27,6.19,1.79,8.54C407.89,171.51,414.11,175.43,414.12,175.44Z" style="fill:#fff"></path></g></g><g id="freepik--Folder--inject-1--inject-2"><polygon points="176.14 411.42 74.45 309.76 191.22 245 273.33 353.33 176.14 411.42" style="fill:#5C6FFF;stroke:#2e353a;stroke-linecap:round;stroke-linejoin:round"></polygon><polygon points="176.14 411.42 74.45 309.76 191.22 245 273.33 353.33 176.14 411.42" style="opacity:0.2"></polygon><polygon points="260.45 334.62 167.48 392.37 75.45 292.43 168.42 234.67 260.45 334.62" style="fill:#2e353a;stroke:#2e353a;stroke-linecap:round;stroke-linejoin:round"></polygon><polygon points="253.6 333.44 167.96 386.64 82.31 293.61 167.95 240.41 253.6 333.44" style="fill:#fff;stroke:#2e353a;stroke-linecap:round;stroke-linejoin:round"></polygon><path d="M194.65,269.42a26.15,26.15,0,0,0-6.63,7.49c-5.92,10.48,9.42,33.6,2.2,39.44s-32.53-6.32-41,7.81c-5.9,9.81-3.05,29.89-.75,41.27L168,386.64l85.64-53.21Z" style="fill:#5C6FFF;stroke:#2e353a;stroke-linecap:round;stroke-linejoin:round"></path><path d="M124.61,298.28c3.19,3.46,2.71,8.17-1.07,10.52s-9.42,1.44-12.61-2-2.72-8.18,1.06-10.53S121.42,294.81,124.61,298.28Z" style="fill:#5C6FFF;stroke:#2e353a;stroke-linecap:round;stroke-linejoin:round"></path><polygon points="264.44 341.53 177.1 390.13 100.19 265.7 187.53 217.09 264.44 341.53" style="fill:#2e353a;stroke:#2e353a;stroke-linecap:round;stroke-linejoin:round"></polygon><polygon points="258.34 339.14 177.88 383.91 106.29 268.09 186.75 223.32 258.34 339.14" style="fill:#fff;stroke:#2e353a;stroke-linecap:round;stroke-linejoin:round"></polygon><path d="M209.07,259.43a23.58,23.58,0,0,0-6.43,7.17c-6,10.57,6.45,38.4-.42,43.67s-28.95-12.12-37.47,2c-5.92,9.82-4.57,32.34-3.19,45.2l16.32,26.4,80.46-44.77Z" style="fill:#5C6FFF;stroke:#2e353a;stroke-linecap:round;stroke-linejoin:round"></path><path d="M144.16,280c2.66,4.32,2,9.41-1.6,11.39s-8.59.08-11.26-4.23-2-9.42,1.6-11.39S141.49,275.65,144.16,280Z" style="fill:#5C6FFF;stroke:#2e353a;stroke-linecap:round;stroke-linejoin:round"></path><polygon points="266.37 296.76 175 352.07 129.17 219.96 220.54 164.65 266.37 296.76" style="fill:#2e353a;stroke:#2e353a;stroke-linecap:round;stroke-linejoin:round"></polygon><polygon points="261.18 294.37 177.01 345.32 134.35 222.35 218.53 171.4 261.18 294.37" style="fill:#fff;stroke:#2e353a;stroke-linecap:round;stroke-linejoin:round"></polygon><path d="M231.83,209.75a33.92,33.92,0,0,0-7.48,7.95c-7.75,11.62-1.94,41.32-9.43,47.23s-24.43-12.19-35.31,3.38c-7.54,10.81-11,35.12-12.32,49l9.72,28,84.17-50.95Z" style="fill:#5C6FFF;stroke:#2e353a;stroke-linecap:round;stroke-linejoin:round"></path><path d="M167.15,234c1.59,4.58-.14,10.12-3.85,12.37s-8,.35-9.6-4.23.13-10.11,3.84-12.36S165.56,229.41,167.15,234Z" style="fill:#5C6FFF;stroke:#2e353a;stroke-linecap:round;stroke-linejoin:round"></path><polygon points="265.57 249.12 176.14 297.78 147.86 149.83 237.28 101.17 265.57 249.12" style="fill:#2e353a;stroke:#2e353a;stroke-linecap:round;stroke-linejoin:round"></polygon><polygon points="261.06 245.91 178.69 290.74 152.36 153.03 234.74 108.21 261.06 245.91" style="fill:#fff;stroke:#2e353a;stroke-linecap:round;stroke-linejoin:round"></polygon><path d="M243,151.15a33,33,0,0,0-7.67,7.68c-8.31,11.59-6.07,44.31-13.54,49.79s-21.11-16.09-32.69-.6c-8,10.75-13.66,36.55-16.36,51.33l6,31.39,82.37-44.83Z" style="fill:#5C6FFF;stroke:#2e353a;stroke-linecap:round;stroke-linejoin:round"></path><path d="M181.19,169.52c1,5.13-1.17,10.89-4.8,12.87s-7.38-.58-8.36-5.71,1.17-10.89,4.8-12.87S180.21,164.39,181.19,169.52Z" style="fill:#5C6FFF;stroke:#2e353a;stroke-linecap:round;stroke-linejoin:round"></path><polygon points="191.67 267.08 176.14 411.42 273.33 353.33 302.41 212 226.63 257.28 227.62 248.62 191.67 267.08" style="fill:#5C6FFF;stroke:#2e353a;stroke-linecap:round;stroke-linejoin:round"></polygon><polygon points="191.67 267.08 176.14 411.42 273.33 353.33 302.41 212 226.63 257.28 227.62 248.62 191.67 267.08" style="opacity:0.2"></polygon></g></svg>