<?xml version="1.0" encoding="UTF-8"?>
<svg id="Warstwa_3" xmlns="http://www.w3.org/2000/svg" version="1.1" viewBox="0 0 2000 2000">
  <!-- Generator: Adobe Illustrator 29.3.0, SVG Export Plug-In . SVG Version: 2.1.0 Build 146)  -->
  <path d="M1304.8,1522.8c-69.7,59.4-139.7,117.5-205.9,181.1-37.4,35.9-75.2,81.2-113.9,114.1-13.3,11.3-15.5,14.9-34.1,10-47.7-12.5-115.7-79.3-141.8-120.2-34.5-54.2-61.1-130.6,3-174.7,72-49.4,252.9-62.6,341.1-64.9,41.8-1.1,114.1.2,152.7,14.8,8,3,16,8.2,23.1,12.9l1,3c0,6-20.2,19.5-25.3,23.9Z" fill="#fff"/>
  <g>
    <path d="M1412.8,1229.2c-48.1-35.9-75.8-66-138.8-76.2-82.5-13.3-134.6,9.3-206.4,43.6-215.1,102.5-392.6,281.9-635.8,114.7-78.6-54.1-151.8-145.3-157.8-244.2-5.6-91.4,1.9-172.5,43.7-254.4,16.9-33.2,71-110.2,103.3-126.7,20-10.2,55.2,7.8,73.7,18.4,48.9,28.2,94.2,74.2,141.5,106.5,58.5,39.9,147.6,47.1,213.8,24.1,218.4-75.8,409.2-304.1,658.5-180.4,176.9,87.8,249.4,251.8,201,443.9-16.3,64.7-75,173.2-131.6,210.4-14.7,9.7-31.9,5.1-47.2-.5-41.8-15.4-82-52.4-117.8-79.2Z" fill="#fff"/>
    <path d="M1269.2,441.2c-33.2,49.7-157.3,69.6-214.2,76.8-78.7,9.9-183.5,17.5-260.5,4.5s-47.2-7.4-68.6-21.9c-.1-2-.6-4.5.5-6.2s28.9-20.3,34-24.5c113.7-93.3,219-195.3,322.5-300,18.4-10.5,65.2,17.8,81,29.2,61.4,44.6,156.9,164.8,105.3,242.1Z" fill="#fff"/>
  </g>
</svg>